<svg width="303" height="199" viewBox="0 0 303 199" fill="none" xmlns="http://www.w3.org/2000/svg">
<g clip-path="url(#clip0_2099_5124)">
<path d="M248.27 168.168C245.137 160.856 246.128 146.234 245.532 141.694C248.095 140.114 264.258 132.695 264.576 131.906C264.576 131.906 253.659 122.553 249.633 120.894C253.94 100.26 254.104 74.6677 249.815 52.8786C245.099 28.9232 236.02 12.5783 224.909 8.03306C221.126 6.48434 216.664 7.0043 211.666 9.56998C196.002 17.6033 175.217 46.069 167.978 68.5156C158.217 65.668 144.499 64.784 132.676 67.9819C127.902 56.4391 120.135 43.447 111.342 32.4314C103.916 23.1231 93.4671 12.1875 85.798 12.7916C78.9591 13.272 61.988 27.1211 53.2035 57.3754C48.3118 74.2244 46.9989 93.7962 49.2075 117.209C49.4971 120.336 50.3507 123.086 51.3571 125.353C46.957 126.966 36.2318 135.862 36.2318 135.862C36.2318 135.862 48.7169 145.883 54.1916 147.547C53.0495 155.903 51.6792 171.125 51.642 171.29C49.5316 182.104 36.8646 178.434 36.8646 178.434C35.0045 196.785 44.2878 202.603 45.5428 203.541C42.2779 204.642 37.8863 203.518 35.8566 202.063C36.3959 214.218 38.9154 240.584 82.81 249.841C108.631 255.008 147.158 269.341 147.158 269.341C147.158 269.341 191.694 250.387 220.692 244.122L221.249 243.962C237.412 238.259 247.873 230.901 254.188 220.787C257.367 215.619 261.239 200.897 261.643 199.612C257.556 200.62 253.73 200.006 249.986 198.853C262.575 197.888 262.49 178.859 261.934 171.149C256.375 174.059 251.531 172.24 248.245 168.166L248.27 168.168Z" fill="black"/>
<path d="M253.222 191.412C257.208 187.45 257.921 182.193 257.363 176.677C257.363 176.677 251.551 179.836 244.39 170.673C241.344 165.268 242.712 151.335 240.404 138.725C246.873 136.903 254.8 130.163 257.26 129.983C252.529 125.376 249.823 123.897 244.377 122.177C255.011 78.0502 243.279 20.5104 223.163 12.2854C209.359 6.6477 177.435 47.8057 171.059 74.4764C161.516 70.3638 143.639 68.498 129.944 73.6776C120.397 47.1759 94.8865 16.5871 86.1318 17.3714C82.4311 17.5618 66.3019 28.7344 57.6176 58.6527C52.5257 76.1736 51.8051 95.7802 53.7805 116.781C54.2006 121.324 56.1531 125.31 58.2682 128.11C52.3706 129.463 47.6739 131.465 43.2478 135.596C48.6439 139.925 52.5504 143.09 59.4394 143.978C58.5191 147.151 56.2665 170.958 56.2301 171.567C55.6602 180.802 43.1436 183.179 40.8688 183.122C40.6312 184.871 42.1558 201.519 55.6159 202.493C51.8381 204.302 46.9512 210.827 40.2789 207.561C40.2789 207.561 42.7213 236.684 83.7276 245.337C110.225 250.636 147.053 264.393 147.053 264.393C147.053 264.393 189.95 246.065 219.732 239.631C231.611 235.441 243.513 229.227 250.284 218.384C253.253 213.552 257.025 201.57 257.025 201.57C256.099 203.788 247.74 202.382 241.692 196.549C245.979 195.79 250.656 193.946 253.205 191.411L253.222 191.412Z" fill="#E7AF63"/>
<path d="M165.561 200.469C152.94 167.211 150.284 165.267 142.2 164.56C130.552 163.542 129.459 176.357 118.798 203.981C118.798 203.981 146.837 188.218 165.552 200.469L165.561 200.469Z" fill="#9D887A"/>
<path d="M178.022 82.148C179.232 82.5546 185.562 84.792 186.825 87.2206C186.825 87.2206 186.342 80.4524 171.908 76.4008C157.473 72.3575 143.15 72.1661 143.15 72.1661C143.15 72.1661 128.835 74.471 120.298 80.7149C110.344 87.9942 111.119 91.0237 111.119 91.0237C111.119 91.0237 120.28 83.0165 122.877 84.1608C122.877 84.1608 116.769 95.5563 126.797 102.309C126.797 102.309 125.372 93.7641 127.885 90.5894C122.191 94.8634 133.515 107.138 142.444 109.808C148 106.847 155.304 97.0878 155.924 91.9577C155.84 93.4422 156.99 98.0901 155.994 101.376C159.637 101.298 169.085 93.8311 169.13 88.2068C169.477 88.1568 175.918 90.0171 181.744 92.4941C181.429 86.4164 179.703 83.552 178.046 82.1582L178.022 82.148Z" fill="#9D887A"/>
<path d="M87.4529 19.5674C97.8768 23.3172 118.247 49.9639 129.566 76.762L115.816 80.0787C115.816 80.0787 118.949 73.1237 117.041 73.2105C115.124 73.2966 108.848 75.4759 108.848 75.4759C108.848 75.4759 110.837 69.5007 110.264 59.8637C109.426 45.9542 90.3431 21.5115 87.4612 19.568L87.4529 19.5674Z" fill="#9D887A"/>
<path d="M216.93 16.2586C202.191 17.5355 183.883 47.5371 171.751 73.9876L185.393 77.7128C185.393 77.7128 182.476 70.6679 184.384 70.8072C186.293 70.9465 192.502 73.3171 192.502 73.3171C192.502 73.3171 189.079 66.9972 191.575 57.6683C196.361 34.7255 216.93 16.2503 216.93 16.2503L216.93 16.2586Z" fill="#9D887A"/>
<path d="M241.731 196.539C254.576 195.517 259.261 177.956 257.875 176.64C243.135 183.369 240.901 151.971 239.682 146.322C239.682 146.322 228.581 137.749 198.002 139.017C167.423 140.294 150.418 166.787 150.418 166.787L162.921 195.954C158.047 190.557 144.274 185.725 139.367 185.911C138.913 185.928 126.304 192.284 122.672 196.215L133.203 166.829C133.203 166.829 119.039 139.618 93.533 139.021C68.028 138.415 58.7321 147.233 58.7321 147.233C58.7321 147.233 63.1061 183.602 40.2565 181.071C38.562 191.926 44.4329 201.432 55.6263 202.483C51.2731 205.959 45.8861 209.25 40.3727 207.307C43.9267 235.452 73.0083 245.312 92.9334 248.299C95.2377 248.643 147.073 264.393 147.073 264.393C180.74 245.036 242.228 240.622 250.462 217.291C252.347 211.943 257.142 201.307 257.142 201.307C257.142 201.307 250.289 204.366 241.731 196.539Z" fill="#E7E2C7"/>
<path d="M97.0564 46.9532C94.493 36.6945 90.5787 25.4414 85.5949 24.4078C77.1452 22.6608 62.0133 52.4491 58.8392 95.6349C57.5276 113.481 68.9416 123.222 68.9416 123.222C68.9416 123.222 73.0449 106.032 92.7664 94.1515C105.826 86.2891 102.052 64.0118 97.0564 46.9532Z" fill="#E7E2C7"/>
<path d="M223.493 20.3835C219.248 20.3416 212.807 37.7709 208.877 49.7574C201.617 66.2395 193.595 90.3683 207.487 94.1954C221.15 97.9555 233.53 122.033 233.53 122.033C233.53 122.033 240.029 124.902 240.702 98.0767C241.938 48.6629 229.244 20.4349 223.493 20.3752L223.493 20.3835Z" fill="#E7E2C7"/>
<path d="M242.452 196.595C246.916 196.394 251.437 194.723 254.458 191.242C258.17 187.017 259.482 181.143 258.915 175.634L257.112 175.536C251.872 175.363 247.067 171.873 245.295 166.912C244.318 164.706 243.975 162.186 243.658 159.785C243.554 157.315 243.468 154.379 243.423 151.914C243.161 147.616 242.671 143.227 241.728 138.955C248.655 137.844 255.066 134.528 260.774 130.515C256.793 126.423 251.73 123.483 246.285 121.763C256.919 77.6362 247.057 37.0538 233.345 17.9679C230.882 14.5395 227.182 10.3928 223.527 10.0675C218.081 9.6114 211.646 12.4657 204.442 18.5962C188.944 31.7824 173.292 57.2068 170.536 73.0394C160.985 68.9346 150.128 67.8743 139.92 69.8587C136.979 70.4227 133.978 71.2419 131.08 72.3617C124.376 52.6569 96.7062 14.6345 86.4956 15.1619C82.7866 15.3517 78.1233 18.4944 73.3617 23.9994C66.2476 32.2129 60.157 44.2856 56.1922 57.9871C51.1247 75.5182 49.5546 95.0544 51.5217 116.054C51.9501 120.599 53.9026 124.584 56.0094 127.384C50.1112 128.745 44.5204 131.51 40.0944 135.642C45.4828 139.962 51.8978 143.31 58.7875 144.19C57.8755 147.363 57.2009 150.613 56.6711 153.831C56.1651 157.068 56.0086 160.565 55.6936 163.824L55.5296 165.713C55.4004 166.331 55.1205 167.86 55.0014 168.454C54.924 169.051 54.4066 170.504 54.2375 171.094C54.1264 171.58 53.7392 172.289 53.5466 172.743C52.1809 175.934 49.6124 178.619 46.3806 179.84C44.2687 180.757 41.8412 180.84 39.5658 180.791C39.3366 182.541 39.1773 184.48 39.349 186.133C39.9037 195.116 45.9006 201.758 54.7391 202.57C50.3775 206.053 45.261 208.066 39.7487 206.115L39.8452 207.311C41.2402 224.125 54.4705 237.457 69.6001 243.417C77.0388 246.631 85.1035 247.94 92.953 249.668C110.979 253.948 128.622 259.924 146.054 266.128L146.936 266.444L147.755 266.009C152.458 263.59 157.715 261.596 162.71 259.649C172.968 255.743 183.34 252.096 193.778 248.713C202.951 245.648 212.281 243.307 221.485 240.286C233.365 236.096 244.581 228.726 251.351 217.892C254.321 213.06 256.517 207.795 257.155 202.089L257.259 201.017L256.21 201.267C250.996 202.326 246.343 200.078 242.427 196.593L242.452 196.595ZM249.601 216.743C240.47 230.62 224.342 237.213 208.671 240.674C189.968 245.705 171.531 251.686 153.548 258.897C151.249 259.859 148.985 260.791 146.672 261.945C126.798 254.868 106.696 248.268 85.8555 244.662C70.678 242.089 55.1121 235.226 46.7898 221.691C44.323 217.635 42.4093 213.007 41.7162 208.301C51.9647 209.652 59.8016 199.582 64.3141 191.539C61.9539 195.151 58.7669 199.298 55.005 202.372C51.0032 201.075 47.2569 198.809 45.1076 195.22C43.2065 192.016 42.5273 188.149 42.8247 184.445C43.7565 184.421 44.6688 184.32 45.5962 184.128C50.0668 183.265 54.0581 180.375 56.3326 176.447C59.474 171.326 59.7755 165.286 59.8902 160.078C60.0663 154.833 60.4872 149.563 61.4115 144.398C61.4198 144.399 61.4365 144.4 61.4448 144.4C61.4365 144.4 61.4204 144.39 61.4127 144.381C62.3346 139.249 63.7688 134.213 65.957 129.408C62.8017 133.464 60.6638 138.156 59.1464 143.069C55.0312 140.692 50.8125 138.241 46.9588 135.498C50.3495 133.141 54.0268 131.216 57.7338 129.343C57.7647 129.379 57.7956 129.415 57.8354 129.443L58.1343 129.138C59.9443 128.224 61.7614 127.326 63.556 126.394C62.5902 126.424 61.6304 126.488 60.668 126.585L60.7766 126.476C58.7148 124.433 56.148 120.369 55.708 115.64C51.6655 72.4932 63.8208 41.4049 76.548 26.7019C81.136 21.3936 84.8182 19.4017 86.7355 19.3072C89.4257 19.1854 97.8478 26.5736 108.214 40.5759C117.292 52.8347 124.516 65.5778 127.271 74.0345C122.207 76.5869 117.767 80.2232 115.012 85.2132C127.572 72.3316 152.162 70.6434 168.62 75.7379C174.75 77.6087 180.627 80.2983 185.964 83.9449C183.873 81.3976 181.263 79.2897 178.545 77.3917C177.236 76.5008 175.889 75.6824 174.503 74.9282C176.378 60.3625 192.132 34.5772 207.183 21.7686C213.36 16.5092 218.855 13.9045 223.08 14.2129C223.122 14.2159 223.164 14.219 223.205 14.222C224.362 14.3232 226.828 16.0019 229.991 20.394C239.446 33.5595 254.141 71.4219 242.274 120.708C240.771 120.406 240.086 120.256 238.57 120.137C244.049 123.341 248.969 126.171 253.987 130.053C249.918 132.754 245.639 135.338 241.546 138.012C240.282 132.645 238.298 127.485 235.154 122.952C239.079 132.817 239.856 143.457 239.647 153.932C239.489 159.154 239.479 165.223 242.393 170.493C244.898 175.39 250.058 178.722 255.524 179.129C255.619 182.854 254.726 186.69 252.63 189.786C250.254 193.271 246.349 195.331 242.256 196.405C238.643 193.127 235.668 188.799 233.502 185.091C236.909 191.862 241.56 198.69 248.705 201.908C250.785 202.796 253.135 203.194 255.44 202.96C254.544 207.852 252.344 212.598 249.601 216.743Z" fill="black"/>
<path d="M71.5074 160.373C71.5074 160.373 68.8537 177.21 81.5313 191.349C84.108 194.71 109.05 197.368 118.609 181.319C121.802 175.959 119.184 162.103 112.628 154.163C99.2471 137.972 71.5074 160.373 71.5074 160.373Z" fill="white"/>
<path d="M117.016 158.185C99.9201 149.443 87.1593 154.105 72.2222 164.092L72.728 162.798C72.328 165.39 71.8912 169.394 71.5549 172.032C70.2398 168.947 69.4658 165.683 68.9212 162.378C74.4111 154.263 82.7092 148.187 92.6448 146.735C102.097 145.474 112.427 149.711 117.017 158.176L117.016 158.185Z" fill="black"/>
<path d="M119.037 174.868C120.43 163.362 116.241 153.208 103.303 151.828C92.2525 150.654 83.9169 158.956 82.5321 170.463C81.1393 181.969 86.2445 192.047 98.2661 193.503C112.064 195.163 117.652 186.375 119.037 174.868ZM100.668 165.524C96.6318 166.666 93.0312 166.446 92.0272 162.888C91.1483 159.785 93.9695 157.255 98.0052 156.113C102.041 154.971 105.781 155.926 106.646 158.749C107.653 162.058 104.703 164.382 100.668 165.524Z" fill="black"/>
<path d="M62.9492 161.205C66.9243 161.16 70.409 159.237 74.014 157.843C77.672 156.184 80.9866 154.751 84.3296 152.249C83.5411 160.012 68.8082 166.765 62.9492 161.205Z" fill="black"/>
<path d="M72.3086 148.893C75.6736 150.193 79.1975 149.789 82.691 149.684C86.2909 149.386 89.4392 149.189 92.8966 147.523C90.8067 155.208 75.2619 156.251 72.3086 148.893Z" fill="black"/>
<path d="M138.47 198.386C135.477 195.22 130.975 196.047 131.193 191.591C131.378 187.828 137.15 188.752 140.731 188.142C146.613 187.131 150.001 189.254 150.413 191.637C151.022 195.207 144.046 196.289 142.412 198.447C140.974 200.352 139.816 199.799 138.478 198.386L138.47 198.386Z" fill="black"/>
<path d="M122.432 197.391C122.963 191.174 130.436 187.607 136.161 185.715C143.775 183.701 152.47 186.303 158.149 191.275C159.602 192.62 163.233 195.484 163.616 197.306C158.767 192.245 145.627 188.599 138.73 189.378C138.101 189.47 136.855 189.763 136.249 189.942C131.128 191.486 125.432 192.978 122.431 197.399L122.432 197.391Z" fill="black"/>
<path d="M90.6773 74.6335L87.3647 72.1731C87.2606 72.1069 87.1745 72.0252 87.0716 71.9424C82.9621 68.4693 83.1156 62.62 84.8872 57.8934C90.0072 60.042 95.3041 62.1784 100.496 64.0393C95.4169 60.8722 89.9932 57.8391 84.7354 54.9436L83.5759 54.3064C82.604 56.2448 81.5482 58.1855 80.9665 60.2863C79.6599 64.3854 80.1609 69.1942 82.6123 72.7722C77.6675 74.3955 73.1402 77.0623 69.0777 80.3575L67.6061 81.5729C68.8649 83.4815 70.6236 85.4267 72.3029 86.6293C75.0864 88.7664 78.0296 90.5552 81.0945 92.1687C74.0151 96.6167 71.4398 105.781 73.1361 113.933C73.1593 105.638 76.7871 96.1744 85.4411 93.7837L89.0432 92.6485C86.8824 91.3856 84.0104 89.7694 81.9045 88.4436C79.0746 86.5961 75.8502 84.6444 73.4316 82.2158C77.4134 79.3333 81.9276 76.9586 86.6681 75.7223L90.6619 74.6156L90.6773 74.6335Z" fill="black"/>
<path d="M103.319 83.1466C102.241 73.867 101.416 64.6895 98.8978 55.7567C96.4244 48.3762 93.7214 40.9286 90.8732 33.7467C89.7918 31.2482 88.7239 28.5665 87.0882 26.4294C84.994 23.4635 82.862 25.1163 80.4595 26.5735C81.7873 24.9206 83.9809 22.544 86.4897 23.6313C93.0947 26.6586 98.2945 41.7396 100.756 48.3742C104.93 59.3952 105.145 71.6259 103.319 83.1383L103.319 83.1466Z" fill="black"/>
<path d="M233.712 80.6028C229.973 76.9893 225.721 73.9664 220.952 71.9438C223.672 68.5674 224.541 63.8167 223.583 59.6277C223.171 57.4878 222.28 55.472 221.482 53.4546L220.269 54.0024C214.852 56.4536 209.249 59.0503 203.988 61.7891C209.263 60.349 214.657 58.658 219.886 56.9298C221.238 61.784 220.936 67.6058 216.582 70.7625C216.685 70.7281 212.876 73.0873 212.813 73.1497L216.663 74.5693C221.252 76.1853 225.517 78.9162 229.203 82.1072C226.627 84.322 223.278 86.0115 220.344 87.6309C218.148 88.785 215.208 90.1444 212.957 91.2444L216.421 92.6693C224.805 95.7846 227.575 105.514 226.953 113.749C229.288 105.799 227.53 96.4356 220.87 91.4117C224.037 90.0437 227.091 88.5001 230.013 86.5952C231.767 85.526 233.658 83.73 235.046 81.9393L233.703 80.6105L233.712 80.6028Z" fill="black"/>
<path d="M199.894 79.3332C200.195 69.7692 201.785 60.2156 204.816 51.1189C207.65 43.5566 210.855 36.1888 214.682 29.0338C216.111 26.6851 220.56 17.5496 223.967 19.2885C225.443 20.3004 225.733 21.7113 226.649 23.034C225.624 22.2727 224.62 20.7845 223.485 20.3752C221.888 20.2251 220.07 25.124 219.383 26.497C216.525 33.1283 213.935 39.8713 211.075 46.5359C206.287 57.0867 203.381 68.252 199.895 79.3248L199.894 79.3332Z" fill="black"/>
<path d="M115.593 118.171C116.037 121.135 112.083 123.292 105.523 118.248C96.0518 110.974 81.2741 120.373 80.7961 120.263C80.4581 120.188 90.5433 110.555 100.395 110.604C105.253 110.632 114.481 110.728 115.585 118.162L115.593 118.171Z" fill="black"/>
<path d="M157.4 119.258C157.448 122.252 161.7 123.73 167.342 117.683C175.49 108.96 191.599 115.801 192.053 115.614C192.374 115.485 180.853 107.644 171.148 109.307C166.362 110.132 157.279 111.739 157.407 119.248L157.4 119.258Z" fill="black"/>
<path d="M211.47 154.972C211.47 154.972 215.92 171.422 204.583 186.91C202.33 190.543 177.384 195.989 166.034 181.099C162.243 176.126 163.437 162.048 169.233 153.415C181.067 135.806 211.47 154.972 211.47 154.972Z" fill="white"/>
<path d="M165.218 157.908C181.59 147.292 194.984 150.495 211.137 158.752L210.49 157.521C211.167 160.054 212.028 163.988 212.645 166.574C213.651 163.358 214.092 160.025 214.296 156.676C207.893 149.22 198.863 144.109 188.663 143.781C178.972 143.588 168.97 148.964 165.216 157.9L165.218 157.908Z" fill="black"/>
<path d="M201.134 171.952C202.211 160.416 197.745 150.38 184.772 149.35C173.691 148.475 165.585 156.997 164.517 168.535C163.44 180.071 168.82 190.005 180.879 191.137C194.72 192.423 200.065 183.49 201.134 171.952ZM182.513 163.11C178.509 164.36 174.903 164.236 173.802 160.708C172.838 157.63 175.589 155.026 179.593 153.776C183.596 152.525 187.362 153.379 188.304 156.177C189.402 159.457 186.516 161.859 182.513 163.11Z" fill="black"/>
<path d="M220.212 154.838C216.187 155.24 212.462 153.719 208.67 152.737C204.796 151.497 201.294 150.445 197.651 148.331C199.263 155.965 214.87 161.027 220.212 154.838Z" fill="black"/>
<path d="M209.455 143.642C206.189 145.314 202.583 145.308 199.039 145.596C195.367 145.703 192.162 145.861 188.491 144.593C191.411 152.002 207.241 151.293 209.455 143.642Z" fill="black"/>
</g>
<defs>
<clipPath id="clip0_2099_5124">
<rect width="303" height="199" fill="white"/>
</clipPath>
</defs>
</svg>
