<svg width="24" height="24" viewBox="0 0 24 24" fill="none" xmlns="http://www.w3.org/2000/svg">
<circle cx="17" cy="5" r="3" stroke="#585858" stroke-width="2"/>
<circle cx="7" cy="5" r="3" stroke="#585858" stroke-width="2"/>
<path d="M20 19C20 20.6569 18.6569 22 17 22C15.3431 22 14 20.6569 14 19C14 17.3431 17 11 17 11C17 11 20 17.3431 20 19Z" stroke="#585858" stroke-width="2"/>
<circle cx="17" cy="10" r="1" stroke="#585858" stroke-width="2"/>
<path d="M10 19C10 20.6569 8.65685 22 7 22C5.34315 22 4 20.6569 4 19C4 17.3431 7 11 7 11C7 11 10 17.3431 10 19Z" stroke="#585858" stroke-width="2"/>
<circle cx="7" cy="10" r="1" stroke="#585858" stroke-width="2"/>
</svg>
