<svg width="24" height="24" viewBox="0 0 24 24" fill="none" xmlns="http://www.w3.org/2000/svg">
<path d="M2.40039 1.99268C1.84811 1.99268 1.40039 2.44039 1.40039 2.99268C1.40039 3.54496 1.84811 3.99268 2.40039 3.99268V1.99268ZM4.69293 2.99268L5.65815 2.73126C5.5401 2.29536 5.14453 1.99268 4.69293 1.99268V2.99268ZM8.4183 16.7479L7.45307 17.0093C7.58334 17.4903 8.04786 17.802 8.54234 17.7402L8.4183 16.7479ZM19.881 15.3151L20.005 16.3073C20.4297 16.2543 20.7735 15.9368 20.8602 15.5177L19.881 15.3151ZM21.6004 7.00462L22.5796 7.20722C22.6406 6.91271 22.5657 6.60641 22.3758 6.37319C22.1859 6.13998 21.9011 6.00462 21.6004 6.00462V7.00462ZM5.77949 7.00462L4.81427 7.26603V7.26603L5.77949 7.00462ZM2.40039 3.99268H4.69293V1.99268H2.40039V3.99268ZM8.54234 17.7402L20.005 16.3073L19.7569 14.3228L8.29427 15.7556L8.54234 17.7402ZM20.8602 15.5177L22.5796 7.20722L20.6211 6.80201L18.9017 15.1125L20.8602 15.5177ZM3.7277 3.25409L4.81427 7.26603L6.74472 6.7432L5.65815 2.73126L3.7277 3.25409ZM4.81427 7.26603L7.45307 17.0093L9.38353 16.4865L6.74472 6.7432L4.81427 7.26603ZM21.6004 6.00462H5.77949V8.00462H21.6004V6.00462ZM11.0004 20.4999C11.0004 20.7761 10.7765 20.9999 10.5004 20.9999V22.9999C11.8811 22.9999 13.0004 21.8807 13.0004 20.4999H11.0004ZM10.5004 20.9999C10.2242 20.9999 10.0004 20.7761 10.0004 20.4999H8.00039C8.00039 21.8807 9.11968 22.9999 10.5004 22.9999V20.9999ZM10.0004 20.4999C10.0004 20.2238 10.2242 19.9999 10.5004 19.9999V17.9999C9.11968 17.9999 8.00039 19.1192 8.00039 20.4999H10.0004ZM10.5004 19.9999C10.7765 19.9999 11.0004 20.2238 11.0004 20.4999H13.0004C13.0004 19.1192 11.8811 17.9999 10.5004 17.9999V19.9999ZM19.0004 20.4999C19.0004 20.7761 18.7765 20.9999 18.5004 20.9999V22.9999C19.8811 22.9999 21.0004 21.8807 21.0004 20.4999H19.0004ZM18.5004 20.9999C18.2242 20.9999 18.0004 20.7761 18.0004 20.4999H16.0004C16.0004 21.8807 17.1197 22.9999 18.5004 22.9999V20.9999ZM18.0004 20.4999C18.0004 20.2238 18.2242 19.9999 18.5004 19.9999V17.9999C17.1197 17.9999 16.0004 19.1192 16.0004 20.4999H18.0004ZM18.5004 19.9999C18.7765 19.9999 19.0004 20.2238 19.0004 20.4999H21.0004C21.0004 19.1192 19.8811 17.9999 18.5004 17.9999V19.9999Z" fill="black"/>
</svg>
