<svg width="24" height="24" viewBox="0 0 24 24" fill="none" xmlns="http://www.w3.org/2000/svg">
<path d="M10 4.99951C10 5.32992 10.1143 5.86342 10.4219 6.28662C10.6939 6.66093 11.1472 6.99948 12 6.99951C12.8529 6.99951 13.3061 6.66095 13.5781 6.28662C13.8857 5.8634 14 5.32993 14 4.99951C14.0002 4.5808 14.2614 4.20688 14.6543 4.06201C14.9004 3.97132 15.17 3.94143 15.3848 3.93213C15.617 3.92208 15.8672 3.93263 16.1113 3.96143C16.5403 4.01203 17.169 4.14262 17.6123 4.48584C17.643 4.50959 17.6725 4.53486 17.7002 4.56201C18.2548 5.10562 19.0986 5.73462 19.9873 6.47705C20.4052 6.82621 20.8242 7.19589 21.1621 7.55713C21.4705 7.88686 21.8367 8.33669 21.9688 8.85107C21.9896 8.93227 22 9.01628 22 9.1001C21.9999 9.48758 21.8077 9.80206 21.7217 9.93604C21.6053 10.1174 21.4577 10.2986 21.3105 10.4644C21.0131 10.7994 20.6325 11.1649 20.2734 11.4917C19.9102 11.8223 19.5489 12.1308 19.2803 12.356C19.1456 12.4688 19.0333 12.5617 18.9541 12.6265C18.9147 12.6587 18.883 12.6841 18.8613 12.7017C18.8505 12.7104 18.8418 12.7174 18.8359 12.7222C18.833 12.7245 18.8307 12.7267 18.8291 12.728L18.8271 12.729L18.8262 12.73C18.4665 13.0185 17.9563 13.0239 17.5908 12.7427H17.5898L17.5889 12.7417C17.5878 12.7409 17.5862 12.7395 17.584 12.7378C17.5794 12.7343 17.5724 12.729 17.5635 12.7222C17.5455 12.7084 17.519 12.6874 17.4854 12.6616C17.4298 12.6191 17.3547 12.5615 17.2656 12.4937C17.3053 12.8045 17.3471 13.1335 17.3896 13.4741C17.5966 15.1314 17.846 17.0934 18.1943 18.7993C18.2544 19.0935 18.1792 19.3997 17.9893 19.6323C17.7993 19.8648 17.5151 19.9995 17.2148 19.9995H6.78516C6.48934 19.9994 6.2085 19.8689 6.01855 19.6421C5.82855 19.4151 5.74872 19.1151 5.80078 18.8237C6.15315 16.8516 6.40436 14.8761 6.61133 13.2817C6.64685 13.0081 6.68139 12.7444 6.71484 12.4937C6.64278 12.5518 6.58187 12.6021 6.53516 12.6401C6.50271 12.6666 6.47716 12.6876 6.45996 12.7017L6.43555 12.7212L6.43457 12.7222C6.09186 13.0038 5.60837 13.0243 5.24512 12.7817L5.17383 12.73C5.17335 12.7296 5.17171 12.7287 5.1709 12.728C5.16928 12.7267 5.16694 12.7245 5.16406 12.7222C5.15821 12.7175 5.14937 12.7103 5.13867 12.7017C5.11702 12.6841 5.08613 12.6586 5.04688 12.6265C4.96764 12.5617 4.85451 12.4689 4.71973 12.356C4.45104 12.1308 4.08979 11.8223 3.72656 11.4917C3.36749 11.1649 2.98695 10.7994 2.68945 10.4644C2.54237 10.2987 2.39564 10.1173 2.2793 9.93604C2.20235 9.81613 2.04109 9.55138 2.00781 9.21924C1.9525 8.85337 2.0537 8.53083 2.14844 8.31787C2.25895 8.06959 2.41686 7.83821 2.57715 7.63623C2.8999 7.22956 3.34076 6.80657 3.79199 6.4165C4.6692 5.65821 5.7162 4.91423 6.3916 4.47998C6.63728 4.27429 6.92531 4.17352 7.08789 4.12354C7.3331 4.04817 7.60257 3.99764 7.85352 3.96729C8.10647 3.93669 8.37148 3.92328 8.6123 3.93115C8.80784 3.93756 9.13841 3.95998 9.4248 4.09424C9.77586 4.25886 9.99987 4.61179 10 4.99951Z" stroke="#585858" stroke-width="2" stroke-linejoin="round"/>
</svg>
