<svg width="24" height="24" viewBox="0 0 24 24" fill="none" xmlns="http://www.w3.org/2000/svg">
<path fill-rule="evenodd" clip-rule="evenodd" d="M14.5 0.75C15.1904 0.75 15.75 1.30964 15.75 2C15.75 3.74045 15.0109 5.6794 13.2597 7.38882C13.5486 7.74171 13.7921 8.13202 13.9864 8.50926C14.0186 8.57182 14.0502 8.63541 14.081 8.69995C14.118 8.65773 14.1553 8.61552 14.193 8.57334C15.6224 6.97374 17.5582 5.45352 20.4015 3.90263C21.0075 3.57205 21.7668 3.79537 22.0974 4.40143C22.428 5.00749 22.2047 5.76679 21.5986 6.09737C18.9419 7.54648 17.2527 8.90126 16.0571 10.2392C14.8633 11.5751 14.1121 12.9484 13.385 14.5238C13.3633 14.5707 13.3391 14.6157 13.3127 14.6585C13.3143 16.3866 13.1014 18.4189 12.5885 20.7504H13.0004C13.6907 20.7504 14.2504 21.3101 14.2504 22.0004C14.2504 22.6908 13.6907 23.2504 13.0004 23.2504H11.0004C10.6128 23.2504 10.2471 23.0706 10.0104 22.7636C9.77374 22.4566 9.6929 22.0572 9.79155 21.6823C11.0068 17.0644 10.9749 13.7738 10.53 11.7714C10.305 10.7592 9.99123 10.1493 9.7488 9.85093C9.731 9.82903 9.71461 9.80976 9.6996 9.79283C9.58615 9.87063 9.43889 9.99451 9.27041 10.1836C8.98538 10.5036 8.69565 10.9491 8.4624 11.4932C7.99582 12.5815 7.79274 13.9728 8.20253 15.4071C8.39218 16.0709 8.00782 16.7627 7.34403 16.9524C6.68023 17.142 5.98837 16.7577 5.79872 16.0939C5.20851 14.0281 5.50594 12.0446 6.16464 10.5081C6.49402 9.73977 6.92312 9.06021 7.40364 8.52077C7.8464 8.02371 8.39144 7.58071 9.00543 7.35005C12.3677 5.63264 13.25 3.42618 13.25 2C13.25 1.30964 13.8097 0.75 14.5 0.75ZM9.576 9.68052C9.57595 9.6792 9.58369 9.68261 9.59937 9.69468C9.58388 9.68788 9.57605 9.68184 9.576 9.68052ZM5.75004 3.99997C5.75007 2.61928 6.86935 1.5 8.25004 1.49997C9.63077 1.49995 10.7501 2.61924 10.75 3.99997C10.75 5.38066 9.63073 6.49995 8.25004 6.49997C6.86931 6.5 5.75001 5.3807 5.75004 3.99997Z" fill="#585858"/>
</svg>
