<svg width="24" height="24" viewBox="0 0 24 24" fill="none" xmlns="http://www.w3.org/2000/svg">
<path d="M12 4C13.7561 4 14.8752 5.60389 14.9883 7.22949C15.9408 7.49995 17.0944 7.97674 18.0723 8.46191C18.744 8.79525 19.3885 9.15918 19.8789 9.50781C20.1208 9.67973 20.3579 9.87149 20.5459 10.0752C20.6887 10.23 20.9998 10.5948 21 11.0996C21 11.7868 20.5084 12.1755 20.2256 12.3418C19.9195 12.5217 19.5575 12.6304 19.2422 12.7031C18.925 12.7762 18.578 12.8286 18.2402 12.8672L20.5742 17.8652C21.0385 18.8597 20.3124 19.9999 19.2148 20H14.5488C14.026 19.9999 13.5409 19.7277 13.2686 19.2812L12 17.2002L10.7314 19.2812L10.7305 19.2803C10.4582 19.7268 9.97407 19.9999 9.45117 20H4.78516C3.68764 19.9999 2.96152 18.8597 3.42578 17.8652L5.75879 12.8672C5.42135 12.8286 5.07472 12.7762 4.75781 12.7031C4.44246 12.6304 4.08048 12.5217 3.77441 12.3418C3.4916 12.1755 3 11.7868 3 11.0996C3.00015 10.5948 3.31133 10.23 3.4541 10.0752C3.64209 9.87149 3.87924 9.67973 4.12109 9.50781C4.61153 9.15918 5.25596 8.79525 5.92773 8.46191C6.90526 7.97689 8.05842 7.49999 9.01074 7.22949C9.12382 5.60387 10.2439 4 12 4Z" stroke="#585858" stroke-width="2"/>
</svg>
