<svg width="24" height="24" viewBox="0 0 24 24" fill="none" xmlns="http://www.w3.org/2000/svg">
<path fill-rule="evenodd" clip-rule="evenodd" d="M16.6948 5.05892C17.8031 5.20271 19.0272 5.63094 19.8001 6.47174L19.0639 7.14849L19.8001 6.47174L19.8531 6.52935L19.1194 7.20376L19.8531 6.52936C21.4905 8.3107 22.1242 10.9517 22.853 14.7249C23.06 15.7968 23.0529 16.8355 22.8029 17.7137C22.5539 18.5884 22.028 19.402 21.1367 19.786C20.2374 20.1735 19.2263 20.0123 18.2516 19.4906C17.2811 18.9711 16.2465 18.0489 15.1624 16.7024C15.0363 16.5457 14.6533 16.2893 14.0597 16.0635C13.4915 15.8473 12.9464 15.7404 12.6567 15.7404H12.0105C11.6658 15.7404 11.054 15.8393 10.4613 16.0433C10.1715 16.143 9.91647 16.2578 9.71869 16.3775C9.51139 16.5031 9.42355 16.6 9.3977 16.6394L9.336 16.7333L9.25499 16.8113C7.87471 18.1388 6.65677 19.0078 5.58934 19.4633C4.52217 19.9187 3.47526 20.0092 2.59541 19.5402C1.72312 19.0752 1.28438 18.2032 1.10723 17.3335C0.928535 16.4562 0.981766 15.4496 1.20318 14.4552C1.60323 12.6586 1.97909 11.0998 2.43828 9.79342C2.89857 8.48384 3.4645 7.36117 4.28209 6.47174C5.04975 5.63663 6.21986 5.21411 7.31747 5.07395C8.42923 4.93199 9.6516 5.05423 10.6437 5.50275C11.3366 5.81604 11.8063 5.89685 12.1763 5.88203C12.5445 5.86728 12.9073 5.75493 13.3982 5.52176C14.339 5.02032 15.5902 4.9156 16.6948 5.05892ZM16.4375 7.0423C15.5667 6.92932 14.7724 7.05086 14.3283 7.29241L14.3055 7.30484L14.282 7.31606C13.6714 7.60815 13.0195 7.84986 12.2563 7.88042C11.4898 7.91112 10.7062 7.72593 9.81974 7.32516C9.23241 7.05962 8.39662 6.95239 7.57079 7.05784C6.73082 7.1651 6.08393 7.46687 5.75452 7.82523C5.19261 8.43652 4.73932 9.27819 4.32512 10.4566C3.90981 11.6382 3.55591 13.0911 3.15537 14.8899C2.9765 15.6932 2.95923 16.4053 3.06698 16.9343C3.17629 17.4709 3.38095 17.6926 3.53619 17.7753C3.68386 17.854 4.0486 17.9463 4.80437 17.6237C5.54659 17.307 6.5405 16.6369 7.80066 15.4348C8.0469 15.1042 8.37334 14.8541 8.68278 14.6667C9.03424 14.4539 9.42715 14.2841 9.81042 14.1522C10.5637 13.8929 11.398 13.7404 12.0105 13.7404H12.6567C13.2761 13.7404 14.0738 13.929 14.7709 14.1942C15.4427 14.4498 16.2475 14.8609 16.7203 15.4482C17.7119 16.6799 18.5491 17.3814 19.1954 17.7273C19.8375 18.071 20.1884 18.0168 20.3453 17.9492C20.5101 17.8782 20.7346 17.6746 20.8793 17.1662C21.023 16.6613 21.0529 15.951 20.8893 15.1042C20.1357 11.2026 19.566 9.17233 18.3807 7.88286L18.3277 7.82524L19.0629 7.14945L18.3277 7.82524C18.0035 7.47256 17.3147 7.15611 16.4375 7.0423Z" fill="#585858"/>
<path d="M16 9C16 9.55228 15.5523 10 15 10C14.4477 10 14 9.55228 14 9C14 8.44772 14.4477 8 15 8C15.5523 8 16 8.44772 16 9Z" fill="#585858"/>
<path d="M19 11C19 11.5523 18.5523 12 18 12C17.4477 12 17 11.5523 17 11C17 10.4477 17.4477 10 18 10C18.5523 10 19 10.4477 19 11Z" fill="#585858"/>
<path fill-rule="evenodd" clip-rule="evenodd" d="M8.84247 8C8.84247 7.72386 8.60683 7.5 8.31615 7.5C8.02547 7.5 7.78983 7.72386 7.78983 8V9.5L6.21089 9.5C5.92021 9.5 5.68457 9.72386 5.68457 10C5.68457 10.2761 5.92021 10.5 6.21089 10.5H7.78983V12C7.78983 12.2761 8.02547 12.5 8.31615 12.5C8.60683 12.5 8.84247 12.2761 8.84247 12V10.5H10.4214C10.7121 10.5 10.9477 10.2761 10.9477 10C10.9477 9.72386 10.7121 9.5 10.4214 9.5L8.84247 9.5V8Z" fill="#585858"/>
</svg>
